<svg width="12" height="14" viewBox="0 0 12 14" fill="none" xmlns="http://www.w3.org/2000/svg">
<path d="M2.66667 6.33334H4V7.66668H2.66667V6.33334ZM12 3.00001V12.3333C12 13.0667 11.4 13.6667 10.6667 13.6667H1.33333C0.593333 13.6667 0 13.0667 0 12.3333L0.00666666 3.00001C0.00666666 2.26668 0.593333 1.66668 1.33333 1.66668H2V0.333344H3.33333V1.66668H8.66667V0.333344H10V1.66668H10.6667C11.4 1.66668 12 2.26668 12 3.00001ZM1.33333 4.33334H10.6667V3.00001H1.33333V4.33334ZM10.6667 12.3333V5.66668H1.33333V12.3333H10.6667ZM8 7.66668H9.33333V6.33334H8V7.66668ZM5.33333 7.66668H6.66667V6.33334H5.33333V7.66668Z" fill="white"/>
</svg>
